<mxfile host="app.diagrams.net" modified="2020-10-01T14:50:30.742Z" agent="5.0 (Windows NT 10.0; Win64; x64) AppleWebKit/537.36 (KHTML, like Gecko) Chrome/85.0.4183.121 Safari/537.36" etag="OG7nTYDfpa18Z6o8i38Q" version="13.7.7" type="github">
  <diagram id="0be8KSMxVCnyjvEViiq7" name="Page-1">
    <mxGraphModel dx="1422" dy="804" grid="1" gridSize="10" guides="1" tooltips="1" connect="1" arrows="1" fold="1" page="1" pageScale="1" pageWidth="827" pageHeight="1169" math="0" shadow="0">
      <root>
        <mxCell id="0" />
        <mxCell id="1" parent="0" />
        <mxCell id="6GcsS1of7AEOJsYcCTqA-1" value="Выдаёт" style="rhombus;whiteSpace=wrap;html=1;" vertex="1" parent="1">
          <mxGeometry x="310" y="110" width="130" height="80" as="geometry" />
        </mxCell>
        <mxCell id="6GcsS1of7AEOJsYcCTqA-5" style="edgeStyle=orthogonalEdgeStyle;rounded=0;orthogonalLoop=1;jettySize=auto;html=1;entryX=1;entryY=0.5;entryDx=0;entryDy=0;endArrow=none;endFill=0;" edge="1" parent="1" source="6GcsS1of7AEOJsYcCTqA-2" target="6GcsS1of7AEOJsYcCTqA-1">
          <mxGeometry relative="1" as="geometry" />
        </mxCell>
        <mxCell id="6GcsS1of7AEOJsYcCTqA-29" style="edgeStyle=none;rounded=0;orthogonalLoop=1;jettySize=auto;html=1;entryX=0.5;entryY=1;entryDx=0;entryDy=0;endArrow=classic;endFill=1;" edge="1" parent="1" source="6GcsS1of7AEOJsYcCTqA-2" target="6GcsS1of7AEOJsYcCTqA-20">
          <mxGeometry relative="1" as="geometry" />
        </mxCell>
        <mxCell id="6GcsS1of7AEOJsYcCTqA-30" style="edgeStyle=none;rounded=0;orthogonalLoop=1;jettySize=auto;html=1;entryX=0;entryY=1;entryDx=0;entryDy=0;endArrow=classic;endFill=1;" edge="1" parent="1" source="6GcsS1of7AEOJsYcCTqA-2" target="6GcsS1of7AEOJsYcCTqA-26">
          <mxGeometry relative="1" as="geometry" />
        </mxCell>
        <mxCell id="6GcsS1of7AEOJsYcCTqA-31" style="edgeStyle=none;rounded=0;orthogonalLoop=1;jettySize=auto;html=1;entryX=-0.017;entryY=0.25;entryDx=0;entryDy=0;entryPerimeter=0;endArrow=classic;endFill=1;" edge="1" parent="1" source="6GcsS1of7AEOJsYcCTqA-2" target="6GcsS1of7AEOJsYcCTqA-27">
          <mxGeometry relative="1" as="geometry" />
        </mxCell>
        <mxCell id="6GcsS1of7AEOJsYcCTqA-32" style="edgeStyle=none;rounded=0;orthogonalLoop=1;jettySize=auto;html=1;entryX=0;entryY=0;entryDx=0;entryDy=0;endArrow=classic;endFill=1;" edge="1" parent="1" source="6GcsS1of7AEOJsYcCTqA-2" target="6GcsS1of7AEOJsYcCTqA-28">
          <mxGeometry relative="1" as="geometry" />
        </mxCell>
        <mxCell id="6GcsS1of7AEOJsYcCTqA-2" value="Выдачу книг" style="rounded=0;whiteSpace=wrap;html=1;" vertex="1" parent="1">
          <mxGeometry x="520" y="135" width="120" height="30" as="geometry" />
        </mxCell>
        <mxCell id="6GcsS1of7AEOJsYcCTqA-4" style="edgeStyle=orthogonalEdgeStyle;rounded=0;orthogonalLoop=1;jettySize=auto;html=1;entryX=0;entryY=0.5;entryDx=0;entryDy=0;endArrow=none;endFill=0;" edge="1" parent="1" source="6GcsS1of7AEOJsYcCTqA-3" target="6GcsS1of7AEOJsYcCTqA-1">
          <mxGeometry relative="1" as="geometry" />
        </mxCell>
        <mxCell id="6GcsS1of7AEOJsYcCTqA-13" style="rounded=0;orthogonalLoop=1;jettySize=auto;html=1;endArrow=classic;endFill=1;entryX=0.983;entryY=0.38;entryDx=0;entryDy=0;entryPerimeter=0;" edge="1" parent="1" source="6GcsS1of7AEOJsYcCTqA-3" target="6GcsS1of7AEOJsYcCTqA-10">
          <mxGeometry relative="1" as="geometry">
            <mxPoint x="80" y="150" as="targetPoint" />
          </mxGeometry>
        </mxCell>
        <mxCell id="6GcsS1of7AEOJsYcCTqA-14" style="edgeStyle=none;rounded=0;orthogonalLoop=1;jettySize=auto;html=1;entryX=1;entryY=1;entryDx=0;entryDy=0;endArrow=classic;endFill=1;" edge="1" parent="1" source="6GcsS1of7AEOJsYcCTqA-3" target="6GcsS1of7AEOJsYcCTqA-9">
          <mxGeometry relative="1" as="geometry" />
        </mxCell>
        <mxCell id="6GcsS1of7AEOJsYcCTqA-15" style="edgeStyle=none;rounded=0;orthogonalLoop=1;jettySize=auto;html=1;endArrow=classic;endFill=1;" edge="1" parent="1" source="6GcsS1of7AEOJsYcCTqA-3">
          <mxGeometry relative="1" as="geometry">
            <mxPoint x="140" y="80" as="targetPoint" />
          </mxGeometry>
        </mxCell>
        <mxCell id="6GcsS1of7AEOJsYcCTqA-16" style="edgeStyle=none;rounded=0;orthogonalLoop=1;jettySize=auto;html=1;entryX=0.3;entryY=1.02;entryDx=0;entryDy=0;entryPerimeter=0;endArrow=classic;endFill=1;" edge="1" parent="1" source="6GcsS1of7AEOJsYcCTqA-3" target="6GcsS1of7AEOJsYcCTqA-7">
          <mxGeometry relative="1" as="geometry" />
        </mxCell>
        <mxCell id="6GcsS1of7AEOJsYcCTqA-17" style="edgeStyle=none;rounded=0;orthogonalLoop=1;jettySize=auto;html=1;entryX=1;entryY=0;entryDx=0;entryDy=0;endArrow=classic;endFill=1;" edge="1" parent="1" source="6GcsS1of7AEOJsYcCTqA-3" target="6GcsS1of7AEOJsYcCTqA-6">
          <mxGeometry relative="1" as="geometry" />
        </mxCell>
        <mxCell id="6GcsS1of7AEOJsYcCTqA-18" style="edgeStyle=none;rounded=0;orthogonalLoop=1;jettySize=auto;html=1;endArrow=classic;endFill=1;" edge="1" parent="1" source="6GcsS1of7AEOJsYcCTqA-3" target="6GcsS1of7AEOJsYcCTqA-11">
          <mxGeometry relative="1" as="geometry" />
        </mxCell>
        <mxCell id="6GcsS1of7AEOJsYcCTqA-3" value="Сотрудник" style="rounded=0;whiteSpace=wrap;html=1;" vertex="1" parent="1">
          <mxGeometry x="110" y="135" width="120" height="30" as="geometry" />
        </mxCell>
        <mxCell id="6GcsS1of7AEOJsYcCTqA-6" value="Паспорт" style="ellipse;whiteSpace=wrap;html=1;" vertex="1" parent="1">
          <mxGeometry x="50" y="220" width="60" height="60" as="geometry" />
        </mxCell>
        <mxCell id="6GcsS1of7AEOJsYcCTqA-7" value="Отчество" style="ellipse;whiteSpace=wrap;html=1;" vertex="1" parent="1">
          <mxGeometry x="190" y="20" width="60" height="60" as="geometry" />
        </mxCell>
        <mxCell id="6GcsS1of7AEOJsYcCTqA-8" value="Имя" style="ellipse;whiteSpace=wrap;html=1;" vertex="1" parent="1">
          <mxGeometry x="100" y="20" width="60" height="60" as="geometry" />
        </mxCell>
        <mxCell id="6GcsS1of7AEOJsYcCTqA-9" value="Фамилия" style="ellipse;whiteSpace=wrap;html=1;" vertex="1" parent="1">
          <mxGeometry x="20" y="50" width="60" height="60" as="geometry" />
        </mxCell>
        <mxCell id="6GcsS1of7AEOJsYcCTqA-10" value="Телефон" style="ellipse;whiteSpace=wrap;html=1;" vertex="1" parent="1">
          <mxGeometry x="20" y="140" width="60" height="60" as="geometry" />
        </mxCell>
        <mxCell id="6GcsS1of7AEOJsYcCTqA-11" value="Адрес" style="ellipse;whiteSpace=wrap;html=1;" vertex="1" parent="1">
          <mxGeometry x="130" y="260" width="60" height="60" as="geometry" />
        </mxCell>
        <mxCell id="6GcsS1of7AEOJsYcCTqA-20" value="Дата выдачи" style="ellipse;whiteSpace=wrap;html=1;aspect=fixed;" vertex="1" parent="1">
          <mxGeometry x="560" y="30" width="60" height="60" as="geometry" />
        </mxCell>
        <mxCell id="6GcsS1of7AEOJsYcCTqA-26" value="Дата возврата" style="ellipse;whiteSpace=wrap;html=1;aspect=fixed;" vertex="1" parent="1">
          <mxGeometry x="670" y="80" width="60" height="60" as="geometry" />
        </mxCell>
        <mxCell id="6GcsS1of7AEOJsYcCTqA-27" value="Шифр книги" style="ellipse;whiteSpace=wrap;html=1;aspect=fixed;" vertex="1" parent="1">
          <mxGeometry x="670" y="165" width="60" height="60" as="geometry" />
        </mxCell>
        <mxCell id="6GcsS1of7AEOJsYcCTqA-28" value="Год издания" style="ellipse;whiteSpace=wrap;html=1;aspect=fixed;" vertex="1" parent="1">
          <mxGeometry x="580" y="200" width="60" height="60" as="geometry" />
        </mxCell>
      </root>
    </mxGraphModel>
  </diagram>
</mxfile>
